HIERARCHY
ROOT Hips
{
	OFFSET	0.00	0.00	0.00
	CHANNELS 6 Xposition Yposition Zposition Zrotation Xrotation Yrotation
	JOINT LeftUpLeg
	{
		OFFSET	 0.126116	-0.065224	 0.014019
		CHANNELS 3 Zrotation Xrotation Yrotation
		JOINT LeftLeg
		{
			OFFSET	 0.000000	 0.569914	 0.000000
			CHANNELS 3 Zrotation Xrotation Yrotation
			JOINT LeftFoot
			{
				OFFSET	 0.000000	 0.544423	 0.000000
				CHANNELS 3 Zrotation Xrotation Yrotation
				JOINT LeftToeBase
				{
					OFFSET	 0.000000	 0.207117	 0.000000
					CHANNELS 3 Zrotation Xrotation Yrotation
					End Site
					{
						OFFSET	 0.000000	 0.207117	 0.000000
					}
				}
			}
		}
	}
	JOINT RightUpLeg
	{
		OFFSET	-0.124023	-0.065224	 0.008373
		CHANNELS 3 Zrotation Xrotation Yrotation
		JOINT RightLeg
		{
			OFFSET	 0.000000	 0.570047	 0.000000
			CHANNELS 3 Zrotation Xrotation Yrotation
			JOINT RightFoot
			{
				OFFSET	 0.000000	 0.544354	 0.000000
				CHANNELS 3 Zrotation Xrotation Yrotation
				JOINT RightToeBase
				{
					OFFSET	 0.000000	 0.207540	 0.000000
					CHANNELS 3 Zrotation Xrotation Yrotation
					End Site
					{
						OFFSET	 0.000000	 0.207540	 0.000000
					}
				}
			}
		}
	}
	JOINT Spine
	{
		OFFSET	 0.000184	 0.117403	 0.007763
		CHANNELS 3 Zrotation Xrotation Yrotation
		JOINT Spine1
		{
			OFFSET	 0.000000	 0.137269	 0.000000
			CHANNELS 3 Zrotation Xrotation Yrotation
			JOINT Spine2
			{
				OFFSET	 0.000000	 0.156879	 0.000000
				CHANNELS 3 Zrotation Xrotation Yrotation
				JOINT LeftShoulder
				{
					OFFSET	 0.080501	 0.160143	 0.002496
					CHANNELS 3 Zrotation Xrotation Yrotation
					JOINT LeftArm
					{
						OFFSET	 0.000000	 0.164363	 0.000000
						CHANNELS 3 Zrotation Xrotation Yrotation
						JOINT LeftForeArm
						{
							OFFSET	 0.000000	 0.364576	 0.000000
							CHANNELS 3 Zrotation Xrotation Yrotation
							JOINT LeftHand
							{
								OFFSET	 0.000000	 0.360812	 0.000000
								CHANNELS 3 Zrotation Xrotation Yrotation
								JOINT LeftHandIndex1
								{
									OFFSET	 0.000000	 0.086006	 0.000000
									CHANNELS 3 Zrotation Xrotation Yrotation
									JOINT LeftHandIndex2
									{
										OFFSET	 0.000000	 0.047237	 0.000000
										CHANNELS 3 Zrotation Xrotation Yrotation
										JOINT LeftHandIndex3
										{
											OFFSET	-0.004284	 0.038165	 0.000551
											CHANNELS 3 Zrotation Xrotation Yrotation
											End Site
											{
												OFFSET	-0.004284	 0.038165	 0.000551
											}
										}
									}
								}
							}
						}
					}
				}
				JOINT Neck
				{
					OFFSET	 0.000000	 0.176489	 0.000000
					CHANNELS 3 Zrotation Xrotation Yrotation
					JOINT Head
					{
						OFFSET	 0.000000	 0.077941	 0.001747
						CHANNELS 3 Zrotation Xrotation Yrotation
						End Site
						{
							OFFSET	 0.000000	 0.077941	 0.001747
						}
					}
				}
				JOINT RightShoulder
				{
					OFFSET	-0.080363	 0.159706	-0.000306
					CHANNELS 3 Zrotation Xrotation Yrotation
					JOINT RightArm
					{
						OFFSET	 0.000000	 0.164196	 0.000000
						CHANNELS 3 Zrotation Xrotation Yrotation
						JOINT RightForeArm
						{
							OFFSET	 0.000000	 0.365611	 0.000000
							CHANNELS 3 Zrotation Xrotation Yrotation
							JOINT RightHand
							{
								OFFSET	 0.000000	 0.360648	 0.000000
								CHANNELS 3 Zrotation Xrotation Yrotation
								JOINT RightHandIndex1
								{
									OFFSET	 0.000000	 0.069977	 0.000000
									CHANNELS 3 Zrotation Xrotation Yrotation
									JOINT RightHandIndex2
									{
										OFFSET	 0.000000	 0.052305	 0.000000
										CHANNELS 3 Zrotation Xrotation Yrotation
										JOINT RightHandIndex3
										{
											OFFSET	 0.009002	 0.042196	 0.000782
											CHANNELS 3 Zrotation Xrotation Yrotation
											End Site
											{
												OFFSET	 0.009002	 0.042196	 0.000782
											}
										}
									}
								}
							}
						}
					}
				}
			}
		}
	}
}
MOTION
Frames:    7
Frame Time: 0.03333334
-0.017457	 1.255956	 0.115025	 4.789445	 0.295213	 173.977200	-166.978000	 14.769820	-0.719991	 2.123275	-21.892380	 0.992300	 43.183210	 44.990820	-59.620650	 4.912823	 28.009660	-6.307256	-175.732100	 5.362889	 5.938223	-1.805961	-20.085960	 1.846167	-55.840740	 58.977490	 64.236550	-0.376636	 31.171830	 1.633181	 1.351855	 3.972556	-9.874541	 9.924790	 8.608057	-5.527350	-8.556349	-6.644623	 17.969030	-112.566000	 3.131657	 88.314640	 52.001630	 36.591570	-20.696810	 4.459100	-0.231542	 0.527280	-45.128990	 3.324379	-65.175330	-8.017630	 12.509080	-5.833121	-7.228738	 12.664160	 2.804031	 4.963066	-4.014628	-0.346955	 1.521195	-13.919320	 1.351568	-2.030813	 8.902573	-23.864850	 109.129100	 0.671964	-88.593820	-10.829200	 62.333050	 10.555110	-5.110855	-0.503833	 41.431860	-24.630630	 12.444610	-82.150530	 2.015227	 8.307798	 8.960676	 15.202890	 20.247180	-6.343699	-8.239867	-2.131385	 0.447455
-0.017529	 1.257078	 0.114851	 4.765477	 0.273378	 174.022200	-166.946400	 14.834690	-1.040963	 2.128930	-21.945200	 1.013112	 42.940030	 44.877960	-59.367810	 4.912825	 28.009670	-6.307250	-175.811600	 5.433099	 6.269061	-1.815565	-20.184100	 1.796350	-55.603880	 58.868100	 64.081790	-0.380503	 31.176560	 1.637016	 1.370546	 3.969325	-10.277410	 9.838113	 8.532681	-5.511396	-8.455894	-6.559290	 17.953870	-112.544000	 3.104129	 88.310830	 52.017580	 36.551710	-20.812470	 4.638413	-0.230146	 0.365572	-45.421960	 3.118088	-64.946750	-7.992300	 12.529840	-5.839391	-7.228853	 12.659340	 2.803373	 4.963066	-4.014628	-0.346955	 1.498502	-13.884830	 1.363167	-2.019724	 9.000701	-23.935780	 109.101600	 0.692960	-88.604480	-10.804460	 62.237430	 10.618730	-5.249368	-0.618704	 41.524770	-24.633300	 12.416660	-82.025370	 1.993426	 8.248996	 8.960155	 15.202970	 20.260230	-6.347269	-8.239867	-2.131385	 0.447455
-0.017617	 1.258165	 0.114643	 4.734387	 0.244795	 174.079600	-166.924800	 14.918340	-1.352694	 2.136651	-22.017090	 1.040150	 42.710080	 44.765750	-59.129610	 4.912827	 28.009680	-6.307241	-175.901700	 5.525586	 6.615550	-1.828391	-20.314940	 1.732266	-55.401060	 58.758010	 63.968870	-0.385517	 31.182690	 1.641989	 1.395096	 3.964535	-10.798210	 9.724285	 8.436247	-5.489891	-8.325038	-6.449156	 17.933860	-112.515500	 3.068430	 88.305950	 52.037880	 36.524530	-20.957020	 4.869526	-0.228267	 0.155853	-45.786510	 2.832476	-64.669720	-7.959450	 12.556770	-5.847534	-7.229002	 12.653090	 2.802520	 4.963066	-4.014628	-0.346955	 1.469072	-13.840130	 1.378225	-2.005105	 9.127912	-24.027910	 109.066000	 0.720190	-88.618290	-10.770110	 62.134900	 10.698480	-5.427534	-0.766815	 41.644230	-24.655280	 12.369690	-81.866930	 1.965163	 8.172748	 8.959444	 15.203090	 20.277140	-6.351898	-8.239867	-2.131385	 0.447455
-0.017721	 1.259185	 0.114397	 4.697107	 0.210406	 174.148800	-166.913800	 15.019720	-1.647286	 2.146557	-22.109360	 1.072617	 42.499870	 44.659480	-58.912930	 4.912828	 28.009690	-6.307231	-176.000400	 5.637923	 6.968727	-1.844238	-20.476540	 1.656188	-55.238140	 58.650800	 63.902070	-0.391536	 31.190040	 1.647957	 1.424843	 3.959530	-11.420910	 9.587100	 8.319578	-5.462582	-8.168032	-6.316706	 17.909260	-112.481300	 3.025584	 88.300080	 52.058560	 36.511860	-21.122970	 5.147514	-0.226065	-0.095741	-46.207660	 2.474078	-64.352170	-7.920023	 12.589070	-5.857328	-7.229181	 12.645590	 2.801497	 4.963066	-4.014628	-0.346955	 1.433750	-13.786500	 1.396321	-1.987210	 9.280500	-24.138630	 109.023200	 0.752870	-88.634820	-10.722530	 62.027840	 10.787960	-5.639129	-0.943769	 41.787780	-24.697870	 12.306940	-81.677570	 1.931254	 8.081255	 8.958542	 15.203230	 20.297440	-6.357452	-8.239867	-2.131385	 0.447455
-0.017836	 1.260071	 0.114130	 4.657095	 0.173522	 174.223200	-166.912600	 15.130070	-1.906657	 2.157919	-22.214900	 1.107536	 42.321800	 44.566760	-58.730840	 4.912830	 28.009700	-6.307220	-176.100200	 5.760183	 7.303265	-1.861873	-20.655740	 1.575369	-55.121740	 58.554740	 63.881150	-0.397997	 31.197930	 1.654365	 1.457473	 3.954484	-12.086930	 9.437764	 8.195131	-5.432302	-7.998673	-6.174958	 17.882270	-112.444600	 2.979600	 88.293830	 52.074890	 36.512110	-21.292260	 5.446579	-0.223746	-0.365746	-46.642730	 2.077713	-64.023380	-7.877698	 12.623720	-5.867867	-7.229373	 12.637550	 2.800398	 4.963066	-4.014628	-0.346955	 1.395828	-13.728940	 1.415777	-1.967569	 9.444216	-24.257700	 108.977400	 0.787953	-88.652540	-9.397856	 62.090000	 9.758805	-7.100308	-1.246010	 41.927730	-24.218550	 11.904180	-81.626920	 1.894866	 7.983054	 8.957514	 15.203380	 20.319220	-6.363415	-8.239867	-2.131385	 0.447455
-0.017986	 1.260987	 0.113781	 4.606695	 0.127138	 174.316200	-166.921300	 15.270740	-2.179720	 2.173106	-22.355850	 1.151507	 42.143520	 44.470630	-58.551110	 4.912834	 28.009710	-6.307206	-176.221000	 5.916090	 7.682909	-1.884841	-20.888540	 1.474926	-55.029450	 58.453910	 63.901920	-0.406134	 31.207870	 1.662434	 1.499369	 3.948862	-12.921050	 9.247203	 8.038092	-5.391877	-7.784660	-5.996161	 17.847360	-112.398400	 2.921714	 88.286020	 52.087200	 36.525890	-21.492990	 5.822593	-0.220825	-0.705462	-47.167030	 1.566597	-63.622170	-7.824389	 12.667350	-5.881173	-7.229616	 12.627410	 2.799015	 4.963066	-4.014628	-0.346955	 1.348070	-13.656500	 1.440320	-1.942204	 9.650240	-24.407890	 108.919600	 0.832156	-88.674830	-6.162343	 62.331720	 7.075259	-10.419550	-1.759508	 42.075830	-22.989360	 10.997110	-81.729740	 1.849063	 7.859421	 8.956128	 15.203570	 20.346650	-6.370923	-8.239867	-2.131385	 0.447455
-0.018168	 1.261839	 0.113358	 4.549221	 0.073880	 174.422800	-166.940700	 15.435250	-2.441910	 2.191769	-22.528580	 1.201792	 41.983320	 44.382960	-58.392990	 4.912837	 28.009740	-6.307191	-176.355100	 6.096486	 8.077875	-1.912015	-21.163170	 1.362061	-54.976050	 58.358070	 63.972160	-0.415420	 31.219200	 1.671644	 1.548331	 3.941886	-13.867180	 9.026525	 7.860096	-5.343713	-7.539322	-5.792742	 17.806220	-112.345700	 2.855657	 88.277170	 52.088090	 36.555070	-21.705510	 6.253227	-0.217660	-1.092743	-47.736160	 0.970553	-63.176900	-7.763544	 12.717110	-5.896410	-7.229894	 12.615860	 2.797438	 4.963066	-4.014628	-0.346955	 1.293556	-13.573870	 1.468390	-1.912395	 9.885175	-24.579750	 108.853800	 0.882624	-88.700180	-3.621886	 62.436520	 5.029952	-13.060710	-2.236185	 42.246690	-22.101510	 10.270370	-81.688980	 1.796813	 7.718353	 8.954428	 15.203790	 20.377940	-6.379491	-8.239867	-2.131385	 0.447455
